PathFileType	4	(X/Y/Z)	C:\Users\Basilio\Documents\Thesis Gigler\squatting_fais\c3dfiles\040\SLS_pre_front4\markers_experimental.trc
DataRate	CameraRate	NumFrames	NumMarkers	Units	OrigDataRate	OrigDataStartFrame	OrigNumFrames
200.000000	200.000000	4	62	mm	200.000000	1029	1372
Frame#	Time	FHD			LBHD			RBHD			C7			T10			CLAV			LSHO			LUUPA			LMUPA			LDUPA			LLEP			LMEP			LRAD			LUL			LRFIN			RSHO			RUPA1			RMUPA			RDUPA			RLEP			RMEP			RRAD			RUL			RUFIN			LASI			RASI			USACR			LSACR			RSACR			LTHI1			LTHI2			LTHI3			LTHI4			LLFC			LMFC			LTIB1			LTIB2			LTIB3			LTIB4			LLMAL			LMMAL			LHEE			LMT1			LMT2			LMT5			RTHI			RTHI2			RTHI3			RTHI4			RLFC			RMFC			RTIB1			RTIB2			RTIB3			RTIB4			RLMAL			RMMAL			RHEE			RMT1			RMT2			RMT5			*61			
		X1	Y1	Z1	X2	Y2	Z2	X3	Y3	Z3	X4	Y4	Z4	X5	Y5	Z5	X6	Y6	Z6	X7	Y7	Z7	X8	Y8	Z8	X9	Y9	Z9	X10	Y10	Z10	X11	Y11	Z11	X12	Y12	Z12	X13	Y13	Z13	X14	Y14	Z14	X15	Y15	Z15	X16	Y16	Z16	X17	Y17	Z17	X18	Y18	Z18	X19	Y19	Z19	X20	Y20	Z20	X21	Y21	Z21	X22	Y22	Z22	X23	Y23	Z23	X24	Y24	Z24	X25	Y25	Z25	X26	Y26	Z26	X27	Y27	Z27	X28	Y28	Z28	X29	Y29	Z29	X30	Y30	Z30	X31	Y31	Z31	X32	Y32	Z32	X33	Y33	Z33	X34	Y34	Z34	X35	Y35	Z35	X36	Y36	Z36	X37	Y37	Z37	X38	Y38	Z38	X39	Y39	Z39	X40	Y40	Z40	X41	Y41	Z41	X42	Y42	Z42	X43	Y43	Z43	X44	Y44	Z44	X45	Y45	Z45	X46	Y46	Z46	X47	Y47	Z47	X48	Y48	Z48	X49	Y49	Z49	X50	Y50	Z50	X51	Y51	Z51	X52	Y52	Z52	X53	Y53	Z53	X54	Y54	Z54	X55	Y55	Z55	X56	Y56	Z56	X57	Y57	Z57	X58	Y58	Z58	X59	Y59	Z59	X60	Y60	Z60	X61	Y61	Z61	X62	Y62	Z62	

1030	5.145	-273.4918212890626	1759.358276367188	-1124.297729492188	-399.5671691894532	1716.361572265625	-1169.74072265625	-458.876922607422	1682.961303710938	-1039.779541015625	-459.3075561523439	1547.881958007813	-1086.647216796875	-444.8462219238282	1223.484985351563	-1081.6142578125	-321.4501342773438	1502.908203125	-1091.636840820313	-388.5532531738282	1552.5576171875	-1230.91162109375	-220.4827423095704	1529.789306640625	-1296.915405273438	-195.5478210449219	1546.379516601563	-1256.919067382813	-151.0446929931641	1526.7607421875	-1293.169799804688	-91.67010498046876	1507.857299804688	-1289.501831054688	-96.43814849853518	1452.110961914063	-1255.973754882813	nan	nan	nan	175.8156280517578	1573.844604492188	-1225.141479492188	235.9538726806641	1584.647583007813	-1127.98974609375	-359.6431579589844	1535.127807617188	-946.3496704101565	-189.2992095947266	1487.505615234375	-884.8682250976565	-166.8045806884766	1516.998901367188	-916.6541748046877	-121.2157516479492	1481.027954101563	-896.684509277344	-60.66515731811525	1483.358642578125	-913.7239379882815	-68.36639404296876	1432.018920898438	-970.1530761718752	179.2838439941407	1575.193603515625	-1058.495483398438	197.4542694091797	1561.149291992188	-985.7332153320315	272.9082336425782	1592.896606445313	-1066.418090820313	-225.3435363769532	1080.949462890625	-1188.342651367188	-225.3553009033204	1094.38037109375	-956.7881469726565	-416.3185119628907	1093.097045898438	-1067.588500976563	-416.1410217285157	1063.189819335938	-1093.55517578125	-416.1965942382814	1064.567138671875	-1036.934692382813	-319.4001770019532	806.289001464844	-1216.103393554688	-273.8288269042969	734.3513793945314	-1220.435424804688	-228.6737976074219	743.0104980468751	-1226.908203125	-289.7202758789063	680.0351562500001	-1201.59814453125	-258.4764404296876	550.0609130859376	-1183.361572265625	-251.9670715332032	541.3225097656251	-1051.718139648438	-240.5663146972657	324.4621276855469	-1121.583374023438	-316.3244018554688	293.6459045410157	-1154.5546875	-274.9986572265626	280.9179992675782	-1143.110961914063	-274.5624084472657	205.5354003906251	-1099.842895507813	-350.6303710937501	125.7829055786133	-1103.857299804688	-315.2389526367188	140.6081237792969	-1024.291748046875	-412.9362792968751	97.15376281738284	-1048.091674804688	-198.7124023437501	56.14418029785158	-1049.449584960938	-203.7878570556641	51.8192825317383	-1096.204956054688	-261.4868164062501	38.96813583374024	-1137.051147460938	-209.5454864501954	821.4393310546877	-876.4531250000002	-160.4543762207032	777.355895996094	-884.6077270507815	-130.0641479492188	789.2485351562502	-893.1278076171877	-167.1817932128907	694.9229125976564	-897.902038574219	-117.4249649047852	569.5202026367189	-911.703308105469	-114.6389770507813	566.6643676757814	-1046.387573242188	1.330867767333985	419.8047180175782	-939.9134521484377	-32.21147155761719	318.2534790039063	-919.7404785156252	10.71638011932373	333.9021911621094	-927.816833496094	45.15339660644532	300.5201721191407	-962.3808593750002	44.33010864257813	174.4424285888672	-945.700378417969	59.0160369873047	197.5037536621094	-1031.553588867188	3.173406839370728	113.3838195800782	-1005.108947753906	215.8847961425782	177.8533020019532	-1009.1923828125	210.0370178222657	178.7980041503907	-969.0205688476565	178.8631591796875	138.7614135742188	-920.267761230469	nan	nan	nan	
1031	5.15	-273.5553283691407	1759.567993164063	-1123.945678710938	-399.3140563964845	1716.395874023438	-1169.348876953125	-458.8118896484376	1682.962524414063	-1039.499755859375	-459.3236083984376	1547.945190429688	-1086.543334960938	-445.1049194335939	1223.652709960938	-1081.419311523438	-321.4727478027344	1502.882690429688	-1091.446166992188	-388.4766845703126	1552.640869140625	-1230.748291015625	-220.4483184814454	1530.079833984375	-1296.539794921875	-195.4973449707032	1546.547973632813	-1256.798217773438	-151.0267944335938	1526.927612304688	-1292.973266601563	-91.61396789550783	1508.078735351563	-1289.375366210938	-96.69338226318362	1452.710571289063	-1255.81494140625	nan	nan	nan	175.8292999267578	1574.078979492188	-1224.930541992188	236.0643157958985	1585.04052734375	-1127.857177734375	-359.5402832031251	1535.104125976563	-946.0867309570315	-189.2783813476563	1487.46435546875	-884.6145629882815	-166.8510894775391	1517.0185546875	-916.4939575195315	-121.1209793090821	1481.070068359375	-896.5743408203127	-60.73387145996095	1483.619750976563	-913.5877685546877	-68.32727050781251	1432.171997070313	-970.048767089844	179.2548370361328	1575.406127929688	-1058.386596679688	197.3336944580079	1561.301635742188	-985.6873779296877	272.6405334472657	1593.396240234375	-1066.519287109375	-225.5825195312501	1080.957275390625	-1188.283325195313	-225.8088531494141	1094.498901367188	-956.6024169921877	-416.544647216797	1093.071411132813	-1067.486083984375	-416.3462219238282	1063.166381835938	-1093.4423828125	-416.379608154297	1064.527709960938	-1036.836669921875	-319.6134338378907	806.2907714843752	-1216.07958984375	-273.9883117675782	734.3570556640626	-1220.38525390625	-228.8609008789063	743.0509643554689	-1226.896240234375	-289.8630065917969	680.0139160156251	-1201.554931640625	-258.6296997070313	550.1055908203126	-1183.3525390625	-252.1081237792969	541.5175781250001	-1051.8349609375	-240.5527648925782	324.5632934570313	-1121.658569335938	-316.3541564941407	293.6573486328126	-1154.472900390625	-275.1814575195313	280.9233093261719	-1143.06884765625	-274.5106506347657	205.4185180664063	-1099.844604492188	-350.4660644531251	125.7468566894532	-1103.777221679688	-315.2547912597657	140.6115264892578	-1024.283447265625	-412.8667907714845	97.05438995361331	-1048.111328125	-198.7290496826172	56.12165832519533	-1049.409057617188	-203.7817535400391	51.83885955810548	-1096.209838867188	-261.4386596679688	38.96285247802735	-1137.068359375	-209.7081146240235	821.4055786132815	-876.4326782226565	-160.5611724853516	777.351745605469	-884.6053466796877	-130.3094177246094	789.0893554687502	-893.2522583007815	-167.3541259765625	694.8795166015626	-897.9485473632815	-117.5045852661133	569.4866943359376	-911.7387695312502	-114.9834136962891	566.5842895507814	-1046.41015625	1.346032977104187	419.882049560547	-940.0319824218752	-32.2066993713379	318.2784729003907	-919.734802246094	10.61053943634033	333.8866271972657	-928.028015136719	45.21234130859376	300.6208801269532	-962.533386230469	44.49514770507813	174.7318115234375	-946.1547851562502	59.02573394775392	197.5891418457032	-1031.700561523438	3.256539344787599	113.474349975586	-1005.13232421875	215.9518585205079	178.1500854492188	-1009.65966796875	210.2002563476563	178.9081573486328	-969.479919433594	178.9646148681641	138.6617889404297	-920.8069458007815	nan	nan	nan	
1032	5.155	-273.4043579101563	1759.761474609375	-1123.574096679688	-399.2853393554689	1716.531372070313	-1169.043334960938	-458.7639160156251	1682.930908203125	-1039.205078125	-459.2630310058595	1548.007202148438	-1086.366943359375	-445.204803466797	1223.724731445313	-1081.366455078125	-321.4676208496094	1502.903076171875	-1091.230102539063	-388.3012084960939	1552.710205078125	-1230.537353515625	-220.3332977294922	1530.31982421875	-1296.44091796875	-195.5686798095704	1546.94482421875	-1256.706298828125	-151.0246124267578	1527.123779296875	-1292.795654296875	-91.55458831787111	1508.300903320313	-1289.250854492188	-96.59742736816409	1452.956665039063	-1255.738891601563	nan	nan	nan	176.2022399902344	1574.16748046875	-1224.667358398438	236.1816711425782	1585.486328125	-1127.80322265625	-359.5926818847657	1535.175415039063	-945.9604492187502	-189.2526397705078	1487.345825195313	-884.4521484375002	-166.8953552246094	1517.0361328125	-916.3572387695315	-121.3106231689453	1480.922119140625	-896.5764770507815	-60.68853759765626	1483.676513671875	-913.4367675781252	-68.3249969482422	1432.18701171875	-969.951599121094	179.1526184082032	1575.732666015625	-1058.27685546875	197.2798309326172	1561.363403320313	-985.6770019531252	272.5708923339844	1593.837646484375	-1066.403198242188	-225.7792358398438	1080.997924804688	-1188.254638671875	-226.007064819336	1094.57470703125	-956.5125732421877	-416.794647216797	1093.062622070313	-1067.383422851563	-416.6731262207032	1063.196533203125	-1093.333618164063	-416.5398254394532	1064.463989257813	-1036.7255859375	-319.8489685058594	806.2635498046877	-1216.110961914063	-274.1446533203126	734.3308715820314	-1220.30810546875	-228.5340423583985	742.7376098632814	-1226.769409179688	-289.9764099121094	679.9942016601564	-1201.527465820313	-258.6754760742188	550.0359497070314	-1183.33740234375	-252.1722869873047	541.4581298828126	-1051.682495117188	-240.6490478515626	324.5556640625001	-1121.592163085938	-316.3540649414063	293.6624450683594	-1154.477172851563	-275.0769042968751	280.9556274414063	-1143.017211914063	-274.5221252441407	205.5401153564454	-1099.8203125	-350.3479614257813	125.6721878051758	-1103.803344726563	-315.2645568847657	140.6460418701172	-1024.243041992188	-412.8447265625001	97.08440399169925	-1048.112182617188	-198.7167510986329	56.12368774414064	-1049.415771484375	-203.7512969970704	51.86053848266603	-1096.218383789063	-261.4965820312501	38.98685836791993	-1137.018432617188	-209.8994293212891	821.2917480468752	-876.5156860351565	-160.643295288086	777.2773437500002	-884.6406860351565	-130.4077301025391	789.059997558594	-893.2561645507815	-167.6653747558594	694.8504028320314	-897.9912109375002	-117.6388473510742	569.4177856445314	-911.7597656250002	-115.1412200927735	566.5783691406251	-1046.496215820313	1.377655863761902	419.9763183593751	-940.1646118164065	-32.17967605590821	318.2709960937501	-919.871276855469	10.60415554046631	333.9914550781251	-928.0541992187502	45.22281646728516	300.6745300292969	-962.6994628906252	44.61504364013673	174.9716796875	-946.244323730469	59.05994796752931	197.6842346191407	-1031.8798828125	3.358932971954347	113.4564208984375	-1005.124389648438	215.9693450927735	178.3582305908203	-1010.210815429688	210.380599975586	179.0675964355469	-969.9116210937502	179.2239379882813	139.128662109375	-921.3643188476565	nan	nan	nan	
1033	5.16	-273.4851989746094	1759.890991210938	-1123.253051757813	-399.1287536621095	1716.561645507813	-1168.725830078125	-458.6715698242189	1682.854370117188	-1038.939331054688	-459.0535583496095	1548.037109375	-1086.225708007813	-445.3721008300782	1223.8447265625	-1081.188354492188	-321.4317321777344	1502.902221679688	-1091.038696289063	-388.2070617675782	1552.800659179688	-1230.323974609375	-220.1746978759766	1530.435913085938	-1296.272338867188	-195.5439453125001	1547.14111328125	-1256.53173828125	-150.9400177001953	1527.282470703125	-1292.751953125	-91.45372009277345	1508.544555664063	-1289.059448242188	-96.54699707031253	1453.044189453125	-1255.513793945313	nan	nan	nan	175.9720611572266	1574.777221679688	-1225.029541015625	236.2555847167969	1585.905151367188	-1127.682861328125	-359.5634460449219	1535.25439453125	-945.812438964844	-189.200424194336	1487.458251953125	-884.3107910156252	-166.8329315185547	1517.037719726563	-916.2185058593752	-121.1906051635742	1481.044189453125	-896.396667480469	-60.48754501342775	1482.861572265625	-913.133483886719	-68.21262359619142	1432.051635742188	-969.8956298828127	179.1827392578125	1576.030029296875	-1058.1865234375	197.3259735107422	1561.587524414063	-985.5039062500002	272.4311828613282	1594.09912109375	-1066.270385742188	-225.9606018066407	1081.063232421875	-1188.248413085938	-226.1605987548829	1094.524291992188	-956.4873046875002	-417.0267944335939	1093.082641601563	-1067.328369140625	-416.8604431152345	1063.186157226563	-1093.227416992188	-416.6111145019532	1064.468139648438	-1036.599853515625	-320.1801147460938	806.3269042968752	-1216.068115234375	-274.3732604980469	734.3605957031251	-1220.283203125	-229.2278747558594	743.0504150390626	-1226.916015625	-290.0943603515626	680.0014038085939	-1201.501220703125	-258.8244323730469	550.0678710937501	-1183.312377929688	-252.2460327148438	541.4641723632814	-1051.734497070313	-240.7705688476563	324.4934082031251	-1121.498291015625	-316.3782958984376	293.6328125000001	-1154.500122070313	-275.0764770507813	280.8920898437501	-1143.023315429688	-274.5361938476563	205.5125427246094	-1099.808349609375	-350.2405700683594	125.6512832641602	-1103.799072265625	-315.2879638671876	140.6637725830078	-1024.190063476563	-412.7637634277345	97.10617828369143	-1048.056030273438	-198.7198944091797	56.05501937866212	-1049.349487304688	-203.7497558593751	51.93696975708009	-1096.213012695313	-261.4764709472657	39.00294494628907	-1137.033447265625	-210.0250701904297	821.3147583007815	-876.5184326171877	-160.763427734375	777.2175903320315	-884.726989746094	-130.5104217529297	789.018005371094	-893.3919677734377	-167.8062133789063	694.8320312500001	-898.073425292969	-117.7512817382813	569.3878784179689	-911.8731689453127	-115.4335021972657	567.1380615234376	-1046.413696289063	1.312032103538513	419.9777221679689	-940.3634033203127	-32.13481903076173	318.2397460937501	-919.9810791015627	10.67411613464356	334.1528320312501	-928.186462402344	45.26371765136719	300.8093261718751	-962.8265380859377	44.94887924194337	174.9658508300782	-946.3955078125002	59.0178909301758	197.7201232910157	-1032.074462890625	3.719990968704225	113.7952041625977	-1005.404296875	215.9818572998047	178.6939086914063	-1010.584533691406	210.4068450927735	179.3169097900391	-970.1702270507815	179.4705657958985	139.2608947753907	-921.504821777344	nan	nan	nan	
